<svg width="112" height="7" viewBox="0 0 112 7" fill="none" xmlns="http://www.w3.org/2000/svg">
<path d="M0.861328 5.26953L2.3584 3.40332L0.18457 2.78809L0.594727 1.58496L2.72754 2.43262L2.59766 0.046875H3.92383L3.78027 2.48047L5.87207 1.63965L6.27539 2.86328L4.06738 3.47852L5.5166 5.30371L4.44336 6.05566L3.18555 4.05957L1.93457 5.99414L0.861328 5.26953ZM10.4388 5.26953L11.9358 3.40332L9.76199 2.78809L10.1721 1.58496L12.305 2.43262L12.1751 0.046875H13.5013L13.3577 2.48047L15.4495 1.63965L15.8528 2.86328L13.6448 3.47852L15.094 5.30371L14.0208 6.05566L12.763 4.05957L11.512 5.99414L10.4388 5.26953ZM20.0162 5.26953L21.5132 3.40332L19.3394 2.78809L19.7496 1.58496L21.8824 2.43262L21.7525 0.046875H23.0787L22.9351 2.48047L25.0269 1.63965L25.4302 2.86328L23.2222 3.47852L24.6714 5.30371L23.5982 6.05566L22.3404 4.05957L21.0894 5.99414L20.0162 5.26953ZM29.5936 5.26953L31.0907 3.40332L28.9168 2.78809L29.327 1.58496L31.4598 2.43262L31.3299 0.046875H32.6561L32.5125 2.48047L34.6043 1.63965L35.0077 2.86328L32.7996 3.47852L34.2489 5.30371L33.1756 6.05566L31.9178 4.05957L30.6668 5.99414L29.5936 5.26953ZM39.171 5.26953L40.6681 3.40332L38.4943 2.78809L38.9044 1.58496L41.0372 2.43262L40.9073 0.046875H42.2335L42.09 2.48047L44.1818 1.63965L44.5851 2.86328L42.3771 3.47852L43.8263 5.30371L42.753 6.05566L41.4952 4.05957L40.2443 5.99414L39.171 5.26953ZM48.7484 5.26953L50.2455 3.40332L48.0717 2.78809L48.4818 1.58496L50.6146 2.43262L50.4848 0.046875H51.8109L51.6674 2.48047L53.7592 1.63965L54.1625 2.86328L51.9545 3.47852L53.4037 5.30371L52.3305 6.05566L51.0727 4.05957L49.8217 5.99414L48.7484 5.26953ZM58.3259 5.26953L59.8229 3.40332L57.6491 2.78809L58.0593 1.58496L60.1921 2.43262L60.0622 0.046875H61.3884L61.2448 2.48047L63.3366 1.63965L63.7399 2.86328L61.5319 3.47852L62.9811 5.30371L61.9079 6.05566L60.6501 4.05957L59.3991 5.99414L58.3259 5.26953ZM67.9033 5.26953L69.4004 3.40332L67.2265 2.78809L67.6367 1.58496L69.7695 2.43262L69.6396 0.046875H70.9658L70.8222 2.48047L72.914 1.63965L73.3173 2.86328L71.1093 3.47852L72.5586 5.30371L71.4853 6.05566L70.2275 4.05957L68.9765 5.99414L67.9033 5.26953ZM77.4807 5.26953L78.9778 3.40332L76.8039 2.78809L77.2141 1.58496L79.3469 2.43262L79.217 0.046875H80.5432L80.3997 2.48047L82.4914 1.63965L82.8948 2.86328L80.6868 3.47852L82.136 5.30371L81.0627 6.05566L79.8049 4.05957L78.5539 5.99414L77.4807 5.26953ZM87.0581 5.26953L88.5552 3.40332L86.3814 2.78809L86.7915 1.58496L88.9243 2.43262L88.7945 0.046875H90.1206L89.9771 2.48047L92.0689 1.63965L92.4722 2.86328L90.2642 3.47852L91.7134 5.30371L90.6402 6.05566L89.3823 4.05957L88.1314 5.99414L87.0581 5.26953ZM96.6355 5.26953L98.1326 3.40332L95.9588 2.78809L96.3689 1.58496L98.5018 2.43262L98.3719 0.046875H99.698L99.5545 2.48047L101.646 1.63965L102.05 2.86328L99.8416 3.47852L101.291 5.30371L100.218 6.05566L98.9598 4.05957L97.7088 5.99414L96.6355 5.26953ZM106.213 5.26953L107.71 3.40332L105.536 2.78809L105.946 1.58496L108.079 2.43262L107.949 0.046875H109.275L109.132 2.48047L111.224 1.63965L111.627 2.86328L109.419 3.47852L110.868 5.30371L109.795 6.05566L108.537 4.05957L107.286 5.99414L106.213 5.26953Z" fill="#4D4D4D"/>
</svg>
