<svg width="82" height="5" viewBox="0 0 82 5" fill="none" xmlns="http://www.w3.org/2000/svg">
<path d="M0.476562 2.37109C0.476562 1.87109 0.648438 1.45312 0.992188 1.11719C1.34375 0.78125 1.80859 0.613281 2.38672 0.613281C2.96484 0.613281 3.42578 0.78125 3.76953 1.11719C4.12109 1.45312 4.29688 1.87109 4.29688 2.37109C4.29688 2.87109 4.12109 3.28906 3.76953 3.625C3.42578 3.96094 2.96484 4.12891 2.38672 4.12891C1.80859 4.12891 1.34375 3.96094 0.992188 3.625C0.648438 3.28906 0.476562 2.87109 0.476562 2.37109ZM15.8375 2.37109C15.8375 1.87109 16.0094 1.45312 16.3531 1.11719C16.7047 0.78125 17.1695 0.613281 17.7477 0.613281C18.3258 0.613281 18.7867 0.78125 19.1305 1.11719C19.482 1.45312 19.6578 1.87109 19.6578 2.37109C19.6578 2.87109 19.482 3.28906 19.1305 3.625C18.7867 3.96094 18.3258 4.12891 17.7477 4.12891C17.1695 4.12891 16.7047 3.96094 16.3531 3.625C16.0094 3.28906 15.8375 2.87109 15.8375 2.37109ZM31.1984 2.37109C31.1984 1.87109 31.3703 1.45312 31.7141 1.11719C32.0656 0.78125 32.5305 0.613281 33.1086 0.613281C33.6867 0.613281 34.1477 0.78125 34.4914 1.11719C34.843 1.45312 35.0187 1.87109 35.0187 2.37109C35.0187 2.87109 34.843 3.28906 34.4914 3.625C34.1477 3.96094 33.6867 4.12891 33.1086 4.12891C32.5305 4.12891 32.0656 3.96094 31.7141 3.625C31.3703 3.28906 31.1984 2.87109 31.1984 2.37109ZM46.5594 2.37109C46.5594 1.87109 46.7312 1.45312 47.075 1.11719C47.4266 0.78125 47.8914 0.613281 48.4695 0.613281C49.0477 0.613281 49.5086 0.78125 49.8523 1.11719C50.2039 1.45312 50.3797 1.87109 50.3797 2.37109C50.3797 2.87109 50.2039 3.28906 49.8523 3.625C49.5086 3.96094 49.0477 4.12891 48.4695 4.12891C47.8914 4.12891 47.4266 3.96094 47.075 3.625C46.7312 3.28906 46.5594 2.87109 46.5594 2.37109ZM61.9203 2.37109C61.9203 1.87109 62.0922 1.45312 62.4359 1.11719C62.7875 0.78125 63.2523 0.613281 63.8305 0.613281C64.4086 0.613281 64.8695 0.78125 65.2133 1.11719C65.5648 1.45312 65.7406 1.87109 65.7406 2.37109C65.7406 2.87109 65.5648 3.28906 65.2133 3.625C64.8695 3.96094 64.4086 4.12891 63.8305 4.12891C63.2523 4.12891 62.7875 3.96094 62.4359 3.625C62.0922 3.28906 61.9203 2.87109 61.9203 2.37109ZM77.2812 2.37109C77.2812 1.87109 77.4531 1.45312 77.7969 1.11719C78.1484 0.78125 78.6133 0.613281 79.1914 0.613281C79.7695 0.613281 80.2305 0.78125 80.5742 1.11719C80.9258 1.45312 81.1016 1.87109 81.1016 2.37109C81.1016 2.87109 80.9258 3.28906 80.5742 3.625C80.2305 3.96094 79.7695 4.12891 79.1914 4.12891C78.6133 4.12891 78.1484 3.96094 77.7969 3.625C77.4531 3.28906 77.2812 2.87109 77.2812 2.37109Z" fill="#4D4D4D"/>
</svg>
