<svg width="11" height="7" viewBox="0 0 11 7" fill="none" xmlns="http://www.w3.org/2000/svg">
<path d="M5.75409 0.946515H5.75459C5.86611 0.946515 5.97418 0.96736 6.07944 1.00935C6.1855 1.05166 6.2704 1.1068 6.33651 1.17344L6.33679 1.17373L10.6274 5.46431C10.7778 5.61473 10.8546 5.80605 10.8546 6.04652C10.8546 6.28698 10.7778 6.4783 10.6274 6.62872C10.477 6.77914 10.2856 6.85593 10.0452 6.85593C9.80471 6.85593 9.61338 6.77914 9.46297 6.62872L5.8253 2.99105L5.75459 2.92034L5.68388 2.99105L2.04621 6.62872C1.8958 6.77914 1.70447 6.85593 1.46401 6.85593C1.22354 6.85593 1.03222 6.77914 0.881803 6.62872C0.731387 6.4783 0.65459 6.28698 0.65459 6.04652C0.65459 5.80605 0.731388 5.61473 0.881804 5.46431L5.17239 1.17373C5.25671 1.0894 5.34554 1.03196 5.43869 0.998434C5.53568 0.963516 5.64055 0.945946 5.75409 0.946515Z" fill="white" stroke="#4C4C4C" stroke-width="0.2"/>
</svg>
