<svg width="11" height="7" viewBox="0 0 11 7" fill="none" xmlns="http://www.w3.org/2000/svg">
<path d="M5.24591 6.05324H5.24541C5.13389 6.05324 5.02582 6.0324 4.92056 5.9904C4.8145 5.94809 4.7296 5.89296 4.66349 5.82631L4.66321 5.82603L0.372623 1.53544C0.222208 1.38503 0.14541 1.1937 0.14541 0.95324C0.14541 0.712777 0.222207 0.521451 0.372623 0.371036C0.523038 0.220621 0.714364 0.143823 0.954827 0.143823C1.19529 0.143823 1.38662 0.220621 1.53703 0.371036L5.1747 4.00871L5.24541 4.07942L5.31612 4.00871L8.95379 0.371036C9.1042 0.220621 9.29553 0.143823 9.53599 0.143823C9.77646 0.143823 9.96778 0.22062 10.1182 0.371036C10.2686 0.521451 10.3454 0.712778 10.3454 0.95324C10.3454 1.1937 10.2686 1.38503 10.1182 1.53544L5.82761 5.82603C5.74329 5.91036 5.65446 5.96779 5.56131 6.00132C5.46432 6.03624 5.35945 6.05381 5.24591 6.05324Z" fill="white" stroke="#4C4C4C" stroke-width="0.2"/>
</svg>
