<svg width="26" height="26" viewBox="0 0 26 26" fill="none" xmlns="http://www.w3.org/2000/svg">
<g opacity="0.9">
<circle cx="13" cy="13" r="12.5" transform="matrix(0 -1 -1 0 26 26)" fill="#E3E3E3" stroke="#CDCDCD"/>
<path d="M13.2906 9.49034C13.1663 9.49034 13.0456 9.51366 12.9287 9.5603C12.8118 9.60694 12.7148 9.66912 12.6377 9.74685L8.34714 14.0374C8.17614 14.2084 8.09064 14.4261 8.09064 14.6903C8.09064 14.9546 8.17614 15.1723 8.34714 15.3433C8.51814 15.5143 8.73578 15.5998 9.00005 15.5998C9.26433 15.5998 9.48197 15.5143 9.65297 15.3433L13.2906 11.7056L16.9283 15.3433C17.0993 15.5143 17.3169 15.5998 17.5812 15.5998C17.8455 15.5998 18.0631 15.5143 18.2341 15.3433C18.4051 15.1723 18.4906 14.9546 18.4906 14.6903C18.4906 14.4261 18.4051 14.2084 18.2341 14.0374L13.9436 9.74685C13.8503 9.65357 13.7492 9.58735 13.6404 9.54817C13.5316 9.509 13.415 9.48972 13.2906 9.49034Z" fill="#4D4D4D"/>
</g>
</svg>
