<svg width="24" height="24" viewBox="0 0 24 24" fill="none" xmlns="http://www.w3.org/2000/svg">
<circle cx="12" cy="12" r="12" fill="white" fill-opacity="0.6"/>
<circle cx="12" cy="12" r="11.75" stroke="#4D4D4D" stroke-opacity="0.7" stroke-width="0.5"/>
<path d="M12 16.8471C16.7706 16.8471 20 13.164 20 12.0207C20 10.8831 16.7647 7.20001 12 7.20001C7.29412 7.20001 4 10.8831 4 12.0207C4 13.164 7.29412 16.8471 12 16.8471ZM12 15.1013C10.2059 15.1013 8.77647 13.699 8.76471 12.0264C8.75882 10.3031 10.2059 8.9402 12 8.9402C13.7882 8.9402 15.2353 10.3031 15.2353 12.0264C15.2353 13.699 13.7882 15.1013 12 15.1013ZM12 13.1696C12.6647 13.1696 13.2059 12.6515 13.2059 12.0264C13.2059 11.3956 12.6647 10.8719 12 10.8719C11.3353 10.8719 10.7941 11.3956 10.7941 12.0264C10.7941 12.6515 11.3353 13.1696 12 13.1696Z" fill="#4D4D4D" fill-opacity="0.9"/>
</svg>
