<svg width="18" height="18" viewBox="0 0 18 18" fill="none" xmlns="http://www.w3.org/2000/svg">
<path d="M5.21497 8.65397L15.1291 8.65397L13.6707 7.16689C13.5651 7.05817 13.5046 6.9094 13.5046 6.75292C13.5046 6.59629 13.5652 6.4474 13.671 6.33864C13.7766 6.23012 13.9184 6.17044 14.0648 6.17044C14.2111 6.17044 14.3529 6.23012 14.4585 6.33864L16.8721 8.8188L16.8728 8.81952C16.9254 8.87306 16.9674 8.93711 16.9962 9.00817C17.025 9.07924 17.0399 9.15569 17.0399 9.23307C17.0399 9.31044 17.025 9.3869 16.9962 9.45797C16.9674 9.52903 16.9254 9.59308 16.8728 9.64662L14.4585 12.1275L14.4578 12.1282C14.4057 12.1822 14.3441 12.2247 14.2767 12.2535C14.2094 12.2824 14.1373 12.2971 14.0648 12.2971C13.9922 12.2971 13.9202 12.2824 13.8528 12.2535C13.7854 12.2247 13.7238 12.1822 13.6717 12.1282L13.6703 12.1268C13.6178 12.0732 13.5757 12.0092 13.5469 11.9381C13.5181 11.867 13.5032 11.7906 13.5032 11.7132C13.5032 11.6358 13.5181 11.5594 13.5469 11.4883C13.5757 11.4173 13.6178 11.3532 13.6704 11.2996L15.1291 9.81217L5.21497 9.81217C5.06947 9.81217 4.92853 9.75284 4.82354 9.64495C4.71832 9.53683 4.65806 9.3888 4.65806 9.23307C4.65806 9.07734 4.71832 8.9293 4.82354 8.82119C4.92853 8.7133 5.06947 8.65397 5.21497 8.65397Z" fill="white"/>
<path d="M11.4036 12.5399V14.1934C11.4036 14.7876 11.1738 15.3562 10.7668 15.7744C10.3601 16.1924 9.80985 16.4259 9.23761 16.4259H3.60591C3.03367 16.4259 2.48345 16.1924 2.0767 15.7744C1.66973 15.3562 1.43994 14.7876 1.43994 14.1934V4.27277C1.43994 3.67852 1.66973 3.10993 2.0767 2.69173C2.48345 2.27377 3.03367 2.04024 3.60591 2.04024H9.23761C9.80985 2.04024 10.3601 2.27377 10.7668 2.69173C11.1738 3.10993 11.4036 3.67852 11.4036 4.27277V5.9262C11.4036 6.08193 11.3433 6.22997 11.2381 6.33808C11.1331 6.44597 10.9922 6.5053 10.8467 6.5053C10.7012 6.5053 10.5602 6.44597 10.4552 6.33808C10.35 6.22997 10.2898 6.08193 10.2898 5.9262V4.27277C10.2898 3.98998 10.1805 3.71746 9.98395 3.5155C9.78719 3.3133 9.51886 3.19843 9.23761 3.19843H3.60591C3.32465 3.19843 3.05633 3.3133 2.85956 3.5155C2.66302 3.71746 2.55376 3.98998 2.55376 4.27277V14.1934C2.55376 14.4762 2.66302 14.7487 2.85956 14.9506C3.05633 15.1528 3.32466 15.2677 3.60591 15.2677H9.23761C9.51886 15.2677 9.78719 15.1528 9.98395 14.9506C10.1805 14.7487 10.2898 14.4762 10.2898 14.1934V12.5399C10.2898 12.3842 10.35 12.2362 10.4552 12.1281C10.5602 12.0202 10.7012 11.9608 10.8467 11.9608C10.9922 11.9608 11.1331 12.0202 11.2381 12.1281C11.3433 12.2362 11.4036 12.3842 11.4036 12.5399Z" fill="white"/>
</svg>
