<svg width="18" height="18" viewBox="0 0 18 18" fill="none" xmlns="http://www.w3.org/2000/svg">
<path fill-rule="evenodd" clip-rule="evenodd" d="M3.1199 2.7H14.8799C15.4687 2.7 16.0333 2.93389 16.4497 3.35022C16.866 3.76655 17.0999 4.33122 17.0999 4.92V13.32C17.0999 13.9088 16.866 14.4734 16.4497 14.8898C16.0333 15.3061 15.4687 15.54 14.8799 15.54H3.1199C2.53112 15.54 1.96646 15.3061 1.55013 14.8898C1.13379 14.4734 0.899902 13.9088 0.899902 13.32V4.92C0.899902 4.33122 1.13379 3.76655 1.55013 3.35022C1.96646 2.93389 2.53112 2.7 3.1199 2.7ZM8.9999 9.37061L16.0199 5.08841V4.92C16.0199 4.61765 15.8998 4.32769 15.686 4.1139C15.4722 3.9001 15.1823 3.78 14.8799 3.78H3.1199C2.81756 3.78 2.52759 3.9001 2.3138 4.1139C2.10001 4.32769 1.9799 4.61765 1.9799 4.92V5.08841L8.9999 9.37061ZM8.71598 10.4158L1.9799 6.30035V13.32C1.9799 13.6223 2.10001 13.9123 2.3138 14.1261C2.52759 14.3399 2.81756 14.46 3.1199 14.46H14.8799C15.1823 14.46 15.4722 14.3399 15.686 14.1261C15.8998 13.9123 16.0199 13.6223 16.0199 13.32V6.30183L9.2505 10.4157C9.16905 10.4621 9.07689 10.4865 8.9831 10.4865C8.88942 10.4865 8.79737 10.4622 8.71598 10.4158Z" fill="white"/>
</svg>
