<svg width="18" height="18" viewBox="0 0 18 18" fill="none" xmlns="http://www.w3.org/2000/svg">
<path fill-rule="evenodd" clip-rule="evenodd" d="M8.94012 5.45976C8.25186 5.45978 7.57906 5.66387 7.0068 6.04625C6.43451 6.42864 5.98847 6.97214 5.72508 7.60802C5.46169 8.24391 5.39277 8.94362 5.52705 9.61868C5.66133 10.2937 5.99276 10.9138 6.47945 11.4005C6.96614 11.8872 7.58621 12.2186 8.26127 12.3529C8.93632 12.4872 9.63603 12.4183 10.2719 12.1549C10.9078 11.8915 11.4513 11.4454 11.8337 10.8731C12.2161 10.3009 12.4202 9.62813 12.4202 8.9399C12.4191 8.01723 12.0521 7.13265 11.3997 6.48023C10.7473 5.82782 9.86276 5.46083 8.94012 5.45976ZM10.6442 10.6438C10.1922 11.0957 9.57947 11.35 8.94032 11.3507C8.46348 11.3507 7.99722 11.2093 7.60075 10.9444C7.20428 10.6794 6.89527 10.3029 6.71279 9.86238C6.53032 9.42184 6.48257 8.93709 6.5756 8.46942C6.66862 8.00175 6.89824 7.57216 7.23541 7.23499C7.57258 6.89782 8.00217 6.6682 8.46984 6.57518C8.93751 6.48215 9.42226 6.5299 9.8628 6.71237C10.3033 6.89485 10.6799 7.20386 10.9448 7.60033C11.2097 7.9968 11.3511 8.46306 11.3511 8.9399C11.3504 9.57905 11.0962 10.1918 10.6442 10.6438Z" fill="white"/>
<path fill-rule="evenodd" clip-rule="evenodd" d="M16.5705 11.2198L15.4393 10.3397L15.4478 10.3022C15.641 9.44366 15.641 8.55633 15.4478 7.69776L15.4393 7.66032L16.5705 6.7802C16.6862 6.69056 16.7638 6.5654 16.7902 6.42772C16.8166 6.29009 16.7903 6.14789 16.7157 6.0264L15.5856 4.17634C15.5116 4.05437 15.3934 3.96039 15.2518 3.91238C15.1102 3.86436 14.955 3.86559 14.8142 3.91584L13.445 4.40071L13.4185 4.37804C12.7288 3.78911 11.9151 3.34448 11.0304 3.07351L10.995 3.06266L10.7541 1.69742C10.7302 1.55933 10.6549 1.43289 10.5407 1.34148C10.4265 1.25 10.281 1.19961 10.1303 1.2L7.87012 1.2C7.7194 1.19962 7.57376 1.25001 7.45953 1.34147C7.34537 1.43288 7.27006 1.55913 7.24611 1.69722L7.00535 3.06266L6.96994 3.07351C6.08531 3.34447 5.27152 3.7891 4.5819 4.37804L4.55535 4.40071L3.18615 3.91583C3.04542 3.86561 2.89009 3.86435 2.74848 3.91238C2.60691 3.96039 2.48886 4.05421 2.41484 4.17616L1.28476 6.02636C1.21013 6.14786 1.18383 6.29019 1.21021 6.42781C1.23661 6.5655 1.31415 6.69056 1.42991 6.78017L2.56106 7.66032L2.55263 7.69776C2.35945 8.55633 2.35945 9.44366 2.55263 10.3022L2.56106 10.3397L1.42993 11.2198C1.31418 11.3094 1.23656 11.4346 1.21018 11.5723C1.18381 11.7099 1.21005 11.8521 1.28468 11.9736L2.41478 13.8237C2.48881 13.9456 2.60697 14.0396 2.74856 14.0876C2.89019 14.1356 3.04541 14.1344 3.18615 14.0842L4.55539 13.5993L4.58193 13.622C5.27156 14.2109 6.08535 14.6555 6.96997 14.9265L7.00538 14.9373L7.24612 16.3026C7.27006 16.4407 7.34539 16.5671 7.45954 16.6585C7.57377 16.75 7.71925 16.8004 7.86997 16.8L10.1301 16.8C10.2808 16.8004 10.4265 16.75 10.5407 16.6585C10.6549 16.5671 10.7302 16.4409 10.7541 16.3028L10.9949 14.9373L11.0303 14.9265C11.9149 14.6555 12.7287 14.2109 13.4184 13.622L13.4449 13.5993L14.8141 14.0842C14.9548 14.1344 15.1101 14.1356 15.2517 14.0876C15.3933 14.0396 15.5114 13.9458 15.5854 13.8238L16.7154 11.9736C16.79 11.8522 16.8164 11.7099 16.7901 11.5723C16.7637 11.4346 16.6862 11.3094 16.5705 11.2198ZM14.8791 13.1162L13.2008 12.5219L12.9753 12.7365C12.273 13.4056 11.3949 13.8851 10.4318 14.1261L10.1233 14.203L9.82872 15.8729H8.17179L7.87728 14.203L7.56888 14.1261C6.60573 13.8852 5.72759 13.4056 5.02532 12.7365L4.79977 12.5219L3.12124 13.1162L2.28995 11.755L3.67349 10.6784L3.59118 10.3911C3.33079 9.48007 3.33078 8.51996 3.59117 7.60894L3.67348 7.32159L2.28995 6.24502L3.12142 4.88377L4.79967 5.47807L5.02519 5.26347C5.72747 4.59441 6.60555 4.11485 7.56872 3.8739L7.87717 3.79704L8.17165 2.12713H9.82872L10.1232 3.79704L10.4316 3.87388C11.3948 4.11483 12.2729 4.5944 12.9752 5.26345L13.2007 5.47807L14.879 4.88377L15.7105 6.24499L14.3269 7.32159L14.4093 7.60891C14.6696 8.51993 14.6697 9.48003 14.4093 10.391L14.3269 10.6784L15.7105 11.755L14.8791 13.1162Z" fill="white"/>
</svg>
